M48
INCH
T01C0.0400
T02C0.0300
%
T01
X-002952Y+003937
X-002952Y+002952
X-002952Y+001968
X-002952Y+000984
X+003346Y+000000
X+003346Y-000984
X+003346Y-001968
X-000787Y+001181
X+001574Y+002755
X-000787Y-001968
X+001574Y-000393
X-000787Y-005118
X+001574Y-003543
X-002952Y+000000
X-002952Y-000984
X-002952Y-001968
X-002952Y-002952
X-002952Y-003937
X-002952Y-004921
X-002952Y-005905
X-002952Y-006889
X+003346Y-002952
X+003346Y-003937
X+003346Y-004921
X+003346Y-005905
X+003346Y-006889
X+003346Y+003937
X+003346Y+002952
X+003346Y+001968
X+003346Y+000984
T02
X-000787Y+002755
X+001574Y+001181
X-000787Y-000393
X+001574Y-001968
X-000787Y-003543
X+001574Y-005118
X-001574Y+000393
X+002165Y+000393
X-001574Y-002755
X+002165Y-002755
X-001574Y-005905
X+002165Y-005905
M30
